# xmcd
#
# Track frame offsets: 
#        150
#        20315
#        40072
#        61047
#        81083
#        100910
#
# Disc length: 1622 seconds
#
# Revision: 0
# Processed by: cddbd v1.5.2PL0 Copyright (c) Steve Scherf et al.
# Submitted via: ExactAudioCopy v1.0b3
#
DISCID=3a065406
DTITLE=北島三郎 - 男の劇場／がまん坂／男道
DYEAR=2003
DGENRE=Country
TTITLE0=男の劇場
TTITLE1=がまん坂
TTITLE2=男道
TTITLE3=男の劇場（カラオケ）
TTITLE4=がまん坂（カラオケ）
TTITLE5=男道（カラオケ）
EXTD=
EXTT0=
EXTT1=
EXTT2=
EXTT3=
EXTT4=
EXTT5=
PLAYORDER=
